<?xml version="1.0" encoding="UTF-8"?>
<svg id="Layer_2" data-name="Layer 2" xmlns="http://www.w3.org/2000/svg" xmlns:xlink="http://www.w3.org/1999/xlink" viewBox="0 0 757.01 315.08">
  <defs>
    <style>
      .cls-1 {
        fill: url(#linear-gradient-2);
      }

      .cls-2 {
        fill: url(#linear-gradient-28);
        filter: url(#drop-shadow-2);
      }

      .cls-3 {
        fill: url(#linear-gradient-17);
      }

      .cls-4 {
        fill: url(#linear-gradient-15);
      }

      .cls-5 {
        fill: url(#linear-gradient-18);
      }

      .cls-6 {
        fill: url(#linear-gradient-14);
      }

      .cls-7 {
        fill: url(#linear-gradient-20);
      }

      .cls-8 {
        fill: url(#linear-gradient-6);
      }

      .cls-9 {
        fill: url(#linear-gradient-32);
      }

      .cls-10 {
        fill: url(#linear-gradient-11);
      }

      .cls-11 {
        fill: url(#linear-gradient-10);
      }

      .cls-12 {
        fill: url(#linear-gradient-16);
      }

      .cls-13 {
        fill: url(#linear-gradient-31);
      }

      .cls-14 {
        fill: url(#linear-gradient-21);
      }

      .cls-15 {
        fill: #babab9;
      }

      .cls-16 {
        fill: url(#linear-gradient-25);
      }

      .cls-17 {
        fill: url(#linear-gradient-5);
      }

      .cls-18 {
        fill: url(#linear-gradient-7);
      }

      .cls-19 {
        fill: none;
        stroke: #63582d;
        stroke-miterlimit: 10;
      }

      .cls-20 {
        fill: url(#linear-gradient-24);
      }

      .cls-21 {
        fill: url(#linear-gradient-9);
      }

      .cls-22 {
        fill: url(#linear-gradient-22);
      }

      .cls-23 {
        fill: url(#linear-gradient-23);
        filter: url(#drop-shadow-1);
      }

      .cls-24 {
        fill: url(#linear-gradient-34);
        opacity: .42;
      }

      .cls-25 {
        fill: url(#linear-gradient-3);
      }

      .cls-26 {
        fill: url(#linear-gradient);
      }

      .cls-27 {
        fill: url(#linear-gradient-27);
      }

      .cls-28 {
        fill: url(#linear-gradient-33);
      }

      .cls-29 {
        fill: url(#linear-gradient-29);
      }

      .cls-30 {
        fill: url(#linear-gradient-30);
      }

      .cls-31 {
        fill: url(#linear-gradient-19);
      }

      .cls-32 {
        fill: url(#linear-gradient-4);
      }

      .cls-33 {
        fill: url(#linear-gradient-8);
      }

      .cls-34 {
        fill: url(#linear-gradient-12);
      }

      .cls-35 {
        fill: url(#linear-gradient-13);
      }

      .cls-36 {
        fill: url(#linear-gradient-26);
      }
    </style>
    <linearGradient id="linear-gradient" x1="22.87" y1="305.15" x2="22.87" y2="248.66" gradientUnits="userSpaceOnUse">
      <stop offset="0" stop-color="#4e5e6e"/>
      <stop offset="1" stop-color="#2c353e"/>
    </linearGradient>
    <linearGradient id="linear-gradient-2" x1="22.87" y1="315.08" x2="22.87" y2="302.77" gradientUnits="userSpaceOnUse">
      <stop offset="0" stop-color="#4e5e6e"/>
      <stop offset="1" stop-color="#040405"/>
    </linearGradient>
    <linearGradient id="linear-gradient-3" x1="49.74" y1="253.83" x2="-13.97" y2="310.46" xlink:href="#linear-gradient"/>
    <linearGradient id="linear-gradient-4" x1="101.8" x2="101.8" xlink:href="#linear-gradient"/>
    <linearGradient id="linear-gradient-5" x1="101.8" x2="101.8" xlink:href="#linear-gradient-2"/>
    <linearGradient id="linear-gradient-6" x1="128.85" y1="249.4" x2="68.67" y2="312.4" xlink:href="#linear-gradient"/>
    <linearGradient id="linear-gradient-7" x1="180.73" x2="180.73" xlink:href="#linear-gradient"/>
    <linearGradient id="linear-gradient-8" x1="180.73" x2="180.73" xlink:href="#linear-gradient-2"/>
    <linearGradient id="linear-gradient-9" x1="212.55" y1="253.63" x2="136.8" y2="310.97" xlink:href="#linear-gradient"/>
    <linearGradient id="linear-gradient-10" x1="259.66" x2="259.66" xlink:href="#linear-gradient"/>
    <linearGradient id="linear-gradient-11" x1="259.66" x2="259.66" xlink:href="#linear-gradient-2"/>
    <linearGradient id="linear-gradient-12" x1="281.56" y1="247.53" x2="234.83" y2="311.95" xlink:href="#linear-gradient"/>
    <linearGradient id="linear-gradient-13" x1="2746.16" y1="305.15" x2="2746.16" y2="248.66" gradientTransform="translate(3473.04) rotate(-180) scale(1 -1)" xlink:href="#linear-gradient"/>
    <linearGradient id="linear-gradient-14" x1="2746.16" y1="315.08" x2="2746.16" y2="302.77" gradientTransform="translate(3473.04) rotate(-180) scale(1 -1)" xlink:href="#linear-gradient-2"/>
    <linearGradient id="linear-gradient-15" x1="2773.03" y1="253.83" x2="2709.32" y2="310.46" gradientTransform="translate(3473.04) rotate(-180) scale(1 -1)" xlink:href="#linear-gradient"/>
    <linearGradient id="linear-gradient-16" x1="375.11" y1="244.27" x2="375.11" y2="187.78" xlink:href="#linear-gradient"/>
    <linearGradient id="linear-gradient-17" x1="375.11" y1="254.2" x2="375.11" y2="241.89" xlink:href="#linear-gradient-2"/>
    <linearGradient id="linear-gradient-18" x1="375.11" y1="187.83" x2="375.11" y2="245.17" xlink:href="#linear-gradient"/>
    <linearGradient id="linear-gradient-19" x1="2982.95" y1="305.15" x2="2982.95" y2="248.66" gradientTransform="translate(3473.04) rotate(-180) scale(1 -1)" xlink:href="#linear-gradient"/>
    <linearGradient id="linear-gradient-20" x1="2982.95" y1="315.08" x2="2982.95" y2="302.77" gradientTransform="translate(3473.04) rotate(-180) scale(1 -1)" xlink:href="#linear-gradient-2"/>
    <linearGradient id="linear-gradient-21" x1="473.24" y1="253.17" x2="507.92" y2="253.17" gradientUnits="userSpaceOnUse">
      <stop offset="0" stop-color="#fff"/>
      <stop offset="1" stop-color="#fff0d5"/>
    </linearGradient>
    <linearGradient id="linear-gradient-22" x1="3004.85" y1="247.53" x2="2958.12" y2="311.95" gradientTransform="translate(3473.04) rotate(-180) scale(1 -1)" xlink:href="#linear-gradient"/>
    <linearGradient id="linear-gradient-23" x1="490.09" y1="207.49" x2="490.09" y2="158.37" gradientUnits="userSpaceOnUse">
      <stop offset="0" stop-color="#efa07c"/>
      <stop offset="1" stop-color="#ffe274"/>
    </linearGradient>
    <filter id="drop-shadow-1" filterUnits="userSpaceOnUse">
      <feOffset dx="0" dy="0"/>
      <feGaussianBlur result="blur" stdDeviation="30"/>
      <feFlood flood-color="#ffca76" flood-opacity=".78"/>
      <feComposite in2="blur" operator="in"/>
      <feComposite in="SourceGraphic"/>
    </filter>
    <linearGradient id="linear-gradient-24" x1="2825.09" y1="305.15" x2="2825.09" y2="248.66" gradientTransform="translate(3473.04) rotate(-180) scale(1 -1)" xlink:href="#linear-gradient"/>
    <linearGradient id="linear-gradient-25" x1="2825.09" y1="315.08" x2="2825.09" y2="302.77" gradientTransform="translate(3473.04) rotate(-180) scale(1 -1)" xlink:href="#linear-gradient-2"/>
    <linearGradient id="linear-gradient-26" x1="631.1" x2="665.79" xlink:href="#linear-gradient-21"/>
    <linearGradient id="linear-gradient-27" x1="2846.98" y1="247.53" x2="2800.26" y2="311.95" gradientTransform="translate(3473.04) rotate(-180) scale(1 -1)" xlink:href="#linear-gradient"/>
    <linearGradient id="linear-gradient-28" x1="647.95" x2="647.95" xlink:href="#linear-gradient-23"/>
    <filter id="drop-shadow-2" filterUnits="userSpaceOnUse">
      <feOffset dx="0" dy="0"/>
      <feGaussianBlur result="blur-2" stdDeviation="30"/>
      <feFlood flood-color="#ffca76" flood-opacity=".78"/>
      <feComposite in2="blur-2" operator="in"/>
      <feComposite in="SourceGraphic"/>
    </filter>
    <linearGradient id="linear-gradient-29" x1="2907.06" y1="305.15" x2="2907.06" y2="248.66" gradientTransform="translate(3473.04) rotate(-180) scale(1 -1)" xlink:href="#linear-gradient"/>
    <linearGradient id="linear-gradient-30" x1="2907.06" y1="315.08" x2="2907.06" y2="302.77" gradientTransform="translate(3473.04) rotate(-180) scale(1 -1)" xlink:href="#linear-gradient-2"/>
    <linearGradient id="linear-gradient-31" x1="549.13" x2="583.82" xlink:href="#linear-gradient-21"/>
    <linearGradient id="linear-gradient-32" x1="2928.95" y1="247.53" x2="2882.23" y2="311.95" gradientTransform="translate(3473.04) rotate(-180) scale(1 -1)" xlink:href="#linear-gradient"/>
    <linearGradient id="linear-gradient-33" x1="381.19" y1="-1.11" x2="381.19" y2="173.56" gradientUnits="userSpaceOnUse">
      <stop offset=".5" stop-color="#31598f" stop-opacity="0"/>
      <stop offset="1" stop-color="#03f0fc" stop-opacity=".6"/>
    </linearGradient>
    <linearGradient id="linear-gradient-34" x1="383.5" y1="152.91" x2="383.5" y2="25.8" gradientUnits="userSpaceOnUse">
      <stop offset="0" stop-color="#03f0fc" stop-opacity=".9"/>
      <stop offset=".63" stop-color="#31598f" stop-opacity=".65"/>
      <stop offset="1" stop-color="#31598f" stop-opacity=".5"/>
    </linearGradient>
  </defs>
  <g id="Layer_3" data-name="Layer 3">
    <g>
      <g>
        <path class="cls-26" d="M45.73,305.15h0c-15.17-2.17-30.57-2.17-45.73,0h0s0-54.86,0-54.86H0c15.17-2.17,30.57-2.17,45.73,0h0v54.86Z"/>
        <path class="cls-1" d="M11.26,303.98c2.49,.24,6.38,.5,11.14,.29,9.97-.44,14.23-2.53,15.24-.88,1.29,2.12-3.47,9.17-10.26,11.14-5.85,1.7-10.95-1.03-12.61-2.05-4.39-2.71-7.64-7.65-6.74-8.8,.46-.58,1.97-.17,3.22,.29Z"/>
        <path class="cls-25" d="M45.73,305.15l-2.8,.51c-13.27,2.4-26.86,2.4-40.13,0l-2.8-.51v-54.86l2.8,.51c13.27,2.4,26.86,2.4,40.13,0l2.8-.51v54.86Z"/>
      </g>
      <g>
        <path class="cls-32" d="M124.67,305.15h0c-15.17-2.17-30.57-2.17-45.73,0h0s0-54.86,0-54.86h0c15.17-2.17,30.57-2.17,45.73,0h0v54.86Z"/>
        <path class="cls-17" d="M90.19,303.98c2.49,.24,6.38,.5,11.14,.29,9.97-.44,14.23-2.53,15.24-.88,1.29,2.12-3.47,9.17-10.26,11.14-5.85,1.7-10.95-1.03-12.61-2.05-4.39-2.71-7.64-7.65-6.74-8.8,.46-.58,1.97-.17,3.22,.29Z"/>
        <path class="cls-8" d="M124.67,305.15l-2.8,.51c-13.27,2.4-26.86,2.4-40.13,0l-2.8-.51v-54.86l2.8,.51c13.27,2.4,26.86,2.4,40.13,0l2.8-.51v54.86Z"/>
      </g>
      <g>
        <path class="cls-18" d="M203.6,305.15h0c-15.17-2.17-30.57-2.17-45.73,0h0s0-54.86,0-54.86h0c15.17-2.17,30.57-2.17,45.73,0h0v54.86Z"/>
        <path class="cls-33" d="M169.12,303.98c2.49,.24,6.38,.5,11.14,.29,9.97-.44,14.23-2.53,15.24-.88,1.29,2.12-3.47,9.17-10.26,11.14-5.85,1.7-10.95-1.03-12.61-2.05-4.39-2.71-7.64-7.65-6.74-8.8,.46-.58,1.97-.17,3.22,.29Z"/>
        <path class="cls-21" d="M203.6,305.15l-2.8,.51c-13.27,2.4-26.86,2.4-40.13,0l-2.8-.51v-54.86l2.8,.51c13.27,2.4,26.86,2.4,40.13,0l2.8-.51v54.86Z"/>
      </g>
      <g>
        <path class="cls-11" d="M282.53,305.15h0c-15.17-2.17-30.57-2.17-45.73,0h0s0-54.86,0-54.86h0c15.17-2.17,30.57-2.17,45.73,0h0v54.86Z"/>
        <path class="cls-10" d="M248.05,303.98c2.49,.24,6.38,.5,11.14,.29,9.97-.44,14.23-2.53,15.24-.88,1.29,2.12-3.47,9.17-10.26,11.14-5.85,1.7-10.95-1.03-12.61-2.05-4.39-2.71-7.64-7.65-6.74-8.8,.46-.58,1.97-.17,3.22,.29Z"/>
        <path class="cls-34" d="M282.53,305.15l-2.8,.51c-13.27,2.4-26.86,2.4-40.13,0l-2.8-.51v-54.86l2.8,.51c13.27,2.4,26.86,2.4,40.13,0l2.8-.51v54.86Z"/>
      </g>
      <g>
        <path class="cls-35" d="M704.01,305.15h0c15.17-2.17,30.57-2.17,45.73,0h0s0-54.86,0-54.86h0c-15.17-2.17-30.57-2.17-45.73,0h0v54.86Z"/>
        <path class="cls-6" d="M738.49,303.98c-2.49,.24-6.38,.5-11.14,.29-9.97-.44-14.23-2.53-15.24-.88-1.29,2.12,3.47,9.17,10.26,11.14,5.85,1.7,10.95-1.03,12.61-2.05,4.39-2.71,7.64-7.65,6.74-8.8-.46-.58-1.97-.17-3.22,.29Z"/>
        <path class="cls-4" d="M704.01,305.15l2.8,.51c13.27,2.4,26.86,2.4,40.13,0l2.8-.51v-54.86s-2.8,.51-2.8,.51c-13.27,2.4-26.86,2.4-40.13,0l-2.8-.51v54.86Z"/>
      </g>
      <g>
        <path class="cls-12" d="M397.98,244.27h0c-15.17-2.17-30.57-2.17-45.73,0h0s0-54.86,0-54.86h0c15.17-2.17,30.57-2.17,45.73,0h0v54.86Z"/>
        <path class="cls-3" d="M363.5,243.1c2.49,.24,6.38,.5,11.14,.29,9.97-.44,14.23-2.53,15.24-.88,1.29,2.12-3.47,9.17-10.26,11.14-5.85,1.7-10.95-1.03-12.61-2.05-4.39-2.71-7.64-7.65-6.74-8.8,.46-.58,1.97-.17,3.22,.29Z"/>
        <path class="cls-5" d="M397.98,244.27l-2.8,.51c-13.27,2.4-26.86,2.4-40.13,0l-2.8-.51v-54.86l2.8,.51c13.27,2.4,26.86,2.4,40.13,0l2.8-.51v54.86Z"/>
      </g>
      <g>
        <path class="cls-19" d="M490.01,220.83c1.46-2.59,1.74-4.7,1.72-6.13-.04-4.02-2.38-6.01-2.3-10.53,.03-1.82,.44-3.29,.77-4.21"/>
        <path class="cls-31" d="M467.22,305.15h0c15.17-2.17,30.57-2.17,45.73,0h0s0-54.86,0-54.86h0c-15.17-2.17-30.57-2.17-45.73,0h0v54.86Z"/>
        <path class="cls-7" d="M501.7,303.98c-2.49,.24-6.38,.5-11.14,.29-9.97-.44-14.23-2.53-15.24-.88-1.29,2.12,3.47,9.17,10.26,11.14,5.85,1.7,10.95-1.03,12.61-2.05,4.39-2.71,7.64-7.65,6.74-8.8-.46-.58-1.97-.17-3.22,.29Z"/>
        <polygon class="cls-14" points="507.92 288.35 473.24 288.35 473.24 218 507.92 218 507.92 223.06 507.92 288.35"/>
        <path class="cls-15" d="M507.92,285.03h-34.69v-39.18l6.42,.61c7.27,.7,14.58,.7,21.85,0l6.42-.61v39.18Z"/>
        <path class="cls-22" d="M467.22,305.15l2.8,.51c13.27,2.4,26.86,2.4,40.13,0l2.8-.51v-54.86s-2.8,.51-2.8,.51c-13.27,2.4-26.86,2.4-40.13,0l-2.8-.51v54.86Z"/>
        <path class="cls-23" d="M496.87,206.39c-8.62,3.26-16.33-1.69-17.04-2.17-7-4.66-10.05-13.52-8.21-20.91,.88-3.53,2.7-6.07,4.03-7.59-.27,1.27-.46,2.85-.31,4.65,.44,5.45,3.62,9.15,4.96,10.53-.98-1.78-2.71-5.51-2.79-10.53-.08-5.32,1.74-9.28,2.71-11.08,.16,.92,.39,1.91,.7,2.94,.96,3.21,2.41,5.74,3.72,7.59,.71-1.66,1.43-3.99,1.47-6.82,.11-8.03-5.4-13.46-6.66-14.64,2.41,.25,6.36,1.04,9.99,3.87,6.13,4.77,8.79,13.3,7.2,22.07,1.13-.55,1.9-1.22,2.4-1.78,3.44-3.85,1.42-9.94,1.24-10.46,.91,.92,2.3,2.58,3.1,5.03,.27,.84,1.67,5.39-.85,9.99-.46,.84-1.97,3.52-5.19,5.03-1.24,.58-2.38,.82-3.18,.93,1.47,.44,3.46,.74,5.58,.15,4.51-1.24,7.88-5.97,8.52-11.93,.51,1.79,1.07,4.64,.7,8.06-.11,.97-1.65,13.09-12.08,17.04Z"/>
      </g>
      <g>
        <path class="cls-19" d="M647.87,220.83c1.46-2.59,1.74-4.7,1.72-6.13-.04-4.02-2.38-6.01-2.3-10.53,.03-1.82,.44-3.29,.77-4.21"/>
        <path class="cls-20" d="M625.08,305.15h0c15.17-2.17,30.57-2.17,45.73,0h0s0-54.86,0-54.86h0c-15.17-2.17-30.57-2.17-45.73,0h0v54.86Z"/>
        <path class="cls-16" d="M659.56,303.98c-2.49,.24-6.38,.5-11.14,.29-9.97-.44-14.23-2.53-15.24-.88-1.29,2.12,3.47,9.17,10.26,11.14,5.85,1.7,10.95-1.03,12.61-2.05,4.39-2.71,7.64-7.65,6.74-8.8-.46-.58-1.97-.17-3.22,.29Z"/>
        <polygon class="cls-36" points="665.79 288.35 631.1 288.35 631.1 218 665.79 218 665.79 223.06 665.79 288.35"/>
        <path class="cls-15" d="M665.79,285.03h-34.69v-39.18l6.42,.61c7.27,.7,14.58,.7,21.85,0l6.42-.61v39.18Z"/>
        <path class="cls-27" d="M625.08,305.15l2.8,.51c13.27,2.4,26.86,2.4,40.13,0l2.8-.51v-54.86s-2.8,.51-2.8,.51c-13.27,2.4-26.86,2.4-40.13,0l-2.8-.51v54.86Z"/>
        <path class="cls-2" d="M654.73,206.39c-8.62,3.26-16.33-1.69-17.04-2.17-7-4.66-10.05-13.52-8.21-20.91,.88-3.53,2.7-6.07,4.03-7.59-.27,1.27-.46,2.85-.31,4.65,.44,5.45,3.62,9.15,4.96,10.53-.98-1.78-2.71-5.51-2.79-10.53-.08-5.32,1.74-9.28,2.71-11.08,.16,.92,.39,1.91,.7,2.94,.96,3.21,2.41,5.74,3.72,7.59,.71-1.66,1.43-3.99,1.47-6.82,.11-8.03-5.4-13.46-6.66-14.64,2.41,.25,6.36,1.04,9.99,3.87,6.13,4.77,8.79,13.3,7.2,22.07,1.13-.55,1.9-1.22,2.4-1.78,3.44-3.85,1.42-9.94,1.24-10.46,.91,.92,2.3,2.58,3.1,5.03,.27,.84,1.67,5.39-.85,9.99-.46,.84-1.97,3.52-5.19,5.03-1.24,.58-2.38,.82-3.18,.93,1.47,.44,3.46,.74,5.58,.15,4.51-1.24,7.88-5.97,8.52-11.93,.51,1.79,1.07,4.64,.7,8.06-.11,.97-1.65,13.09-12.08,17.04Z"/>
      </g>
      <g>
        <path class="cls-19" d="M565.9,220.83c1.46-2.59,1.74-4.7,1.72-6.13-.04-4.02-2.38-6.01-2.3-10.53,.03-1.82,.44-3.29,.77-4.21"/>
        <path class="cls-29" d="M543.11,305.15h0c15.17-2.17,30.57-2.17,45.73,0h0s0-54.86,0-54.86h0c-15.17-2.17-30.57-2.17-45.73,0h0v54.86Z"/>
        <path class="cls-30" d="M577.59,303.98c-2.49,.24-6.38,.5-11.14,.29-9.97-.44-14.23-2.53-15.24-.88-1.29,2.12,3.47,9.17,10.26,11.14,5.85,1.7,10.95-1.03,12.61-2.05,4.39-2.71,7.64-7.65,6.74-8.8-.46-.58-1.97-.17-3.22,.29Z"/>
        <polygon class="cls-13" points="583.82 288.35 549.13 288.35 549.13 218 583.82 218 583.82 223.06 583.82 288.35"/>
        <path class="cls-15" d="M583.82,285.03h-34.69v-39.18l6.42,.61c7.27,.7,14.58,.7,21.85,0l6.42-.61v39.18Z"/>
        <path class="cls-9" d="M543.11,305.15l2.8,.51c13.27,2.4,26.86,2.4,40.13,0l2.8-.51v-54.86s-2.8,.51-2.8,.51c-13.27,2.4-26.86,2.4-40.13,0l-2.8-.51v54.86Z"/>
      </g>
      <g>
        <circle class="cls-28" cx="381.19" cy="88.07" r="88.07"/>
        <path class="cls-24" d="M401.06,150.05c-22.29,8.44-42.24-4.38-44.09-5.61-18.11-12.07-26-34.97-21.24-54.11,2.27-9.13,7-15.71,10.42-19.64-.7,3.28-1.18,7.37-.8,12.02,1.15,14.1,9.37,23.67,12.83,27.26-2.53-4.6-7.02-14.26-7.21-27.26-.21-13.77,4.51-24.01,7.01-28.66,.42,2.39,1,4.94,1.8,7.62,2.49,8.3,6.23,14.85,9.62,19.64,1.83-4.29,3.71-10.33,3.81-17.64,.29-20.79-13.98-34.83-17.24-37.88,6.23,.64,16.44,2.7,25.85,10.02,15.85,12.33,22.74,34.4,18.64,57.12,2.94-1.41,4.91-3.15,6.21-4.61,8.91-9.96,3.67-25.71,3.21-27.06,2.35,2.37,5.95,6.68,8.02,13.03,.7,2.16,4.33,13.96-2.2,25.85-1.19,2.16-5.09,9.11-13.43,13.03-3.22,1.51-6.16,2.13-8.22,2.4,3.81,1.14,8.94,1.91,14.43,.4,11.67-3.2,20.4-15.44,22.05-30.86,1.31,4.63,2.78,12,1.8,20.84-.28,2.52-4.27,33.88-31.26,44.09Z"/>
      </g>
    </g>
  </g>
</svg>