<?xml version="1.0" encoding="UTF-8"?>
<svg id="Layer_2" data-name="Layer 2" xmlns="http://www.w3.org/2000/svg" xmlns:xlink="http://www.w3.org/1999/xlink" viewBox="0 0 757.13 956.7">
  <defs>
    <style>
      .cls-1 {
        fill: url(#linear-gradient-2);
      }

      .cls-2 {
        fill: url(#linear-gradient-17);
      }

      .cls-3 {
        fill: url(#linear-gradient-43);
      }

      .cls-4 {
        fill: url(#linear-gradient-15);
      }

      .cls-5 {
        fill: url(#linear-gradient-18);
      }

      .cls-6 {
        fill: url(#linear-gradient-40);
      }

      .cls-7 {
        fill: url(#linear-gradient-28);
      }

      .cls-8 {
        fill: url(#linear-gradient-14);
      }

      .cls-9 {
        fill: url(#linear-gradient-36);
      }

      .cls-10 {
        fill: url(#linear-gradient-20);
      }

      .cls-11 {
        fill: url(#linear-gradient-6);
      }

      .cls-12 {
        fill: url(#New_Gradient_Swatch_1-3);
      }

      .cls-13 {
        fill: url(#New_Gradient_Swatch_1-5);
      }

      .cls-14 {
        fill: url(#linear-gradient-35);
      }

      .cls-15 {
        fill: url(#linear-gradient-32);
      }

      .cls-16 {
        fill: url(#linear-gradient-11);
      }

      .cls-17 {
        fill: url(#linear-gradient-39);
      }

      .cls-18 {
        fill: url(#linear-gradient-33);
        filter: url(#drop-shadow-1);
      }

      .cls-19 {
        fill: url(#linear-gradient-10);
      }

      .cls-20 {
        fill: url(#linear-gradient-37);
      }

      .cls-21 {
        fill: url(#New_Gradient_Swatch_1-7);
      }

      .cls-22 {
        fill: url(#linear-gradient-16);
      }

      .cls-23 {
        fill: url(#linear-gradient-31);
      }

      .cls-24 {
        fill: url(#linear-gradient-38);
        filter: url(#drop-shadow-2);
      }

      .cls-25 {
        fill: url(#New_Gradient_Swatch_1-6);
      }

      .cls-26 {
        fill: url(#linear-gradient-41);
      }

      .cls-27 {
        fill: url(#linear-gradient-21);
      }

      .cls-28 {
        fill: #babab9;
      }

      .cls-29 {
        fill: url(#linear-gradient-25);
      }

      .cls-30 {
        fill: url(#linear-gradient-5);
      }

      .cls-31 {
        fill: url(#linear-gradient-34);
      }

      .cls-32 {
        fill: url(#linear-gradient-7);
      }

      .cls-33 {
        fill: url(#New_Gradient_Swatch_1);
      }

      .cls-34 {
        fill: none;
        stroke: #63582d;
        stroke-miterlimit: 10;
      }

      .cls-35 {
        fill: url(#New_Gradient_Swatch_1-2);
      }

      .cls-36 {
        fill: url(#linear-gradient-24);
      }

      .cls-37 {
        fill: url(#linear-gradient-9);
      }

      .cls-38 {
        fill: url(#linear-gradient-22);
      }

      .cls-39 {
        fill: url(#linear-gradient-42);
      }

      .cls-40 {
        fill: url(#linear-gradient-3);
      }

      .cls-41 {
        fill: url(#linear-gradient-44);
        opacity: .42;
      }

      .cls-42 {
        fill: url(#linear-gradient);
      }

      .cls-43 {
        fill: url(#linear-gradient-27);
      }

      .cls-44 {
        fill: url(#linear-gradient-29);
      }

      .cls-45 {
        fill: url(#linear-gradient-30);
      }

      .cls-46 {
        fill: url(#New_Gradient_Swatch_1-4);
      }

      .cls-47 {
        fill: url(#linear-gradient-23);
      }

      .cls-48 {
        fill: url(#linear-gradient-19);
      }

      .cls-49 {
        fill: url(#linear-gradient-4);
      }

      .cls-50 {
        fill: url(#linear-gradient-8);
      }

      .cls-51 {
        fill: url(#linear-gradient-12);
      }

      .cls-52 {
        fill: url(#linear-gradient-13);
      }

      .cls-53 {
        fill: url(#linear-gradient-26);
      }
    </style>
    <linearGradient id="linear-gradient" x1="170.7" y1="956.7" x2="170.7" y2="305.88" gradientUnits="userSpaceOnUse">
      <stop offset="0" stop-color="#31598f" stop-opacity="0"/>
      <stop offset=".44" stop-color="#317cba" stop-opacity=".5"/>
      <stop offset="1" stop-color="#03f0fc"/>
    </linearGradient>
    <linearGradient id="linear-gradient-2" x1="579.52" x2="579.52" xlink:href="#linear-gradient"/>
    <linearGradient id="linear-gradient-3" x1="375.11" y1="956.54" x2="375.11" y2="248.66" xlink:href="#linear-gradient"/>
    <linearGradient id="linear-gradient-4" x1="215.79" y1="956.54" x2="215.79" y2="302.37" xlink:href="#linear-gradient"/>
    <linearGradient id="linear-gradient-5" x1="262.97" y1="956.54" x2="262.97" y2="300.92" xlink:href="#linear-gradient"/>
    <linearGradient id="linear-gradient-6" x1="310.42" y1="956.54" x2="310.42" y2="300.71" xlink:href="#linear-gradient"/>
    <linearGradient id="linear-gradient-7" x1="534.43" y1="956.54" x2="534.43" y2="302.37" xlink:href="#linear-gradient"/>
    <linearGradient id="linear-gradient-8" x1="487.25" y1="956.54" x2="487.25" y2="300.92" xlink:href="#linear-gradient"/>
    <linearGradient id="linear-gradient-9" x1="439.8" y1="956.54" x2="439.8" y2="300.71" xlink:href="#linear-gradient"/>
    <linearGradient id="linear-gradient-10" x1="375.11" y1="936.37" x2="375.11" y2="595.2" gradientUnits="userSpaceOnUse">
      <stop offset="0" stop-color="#1e7d99" stop-opacity=".8"/>
      <stop offset=".12" stop-color="#237195" stop-opacity=".62"/>
      <stop offset=".3" stop-color="#2a6492" stop-opacity=".39"/>
      <stop offset=".45" stop-color="#2f5c8f" stop-opacity=".25"/>
      <stop offset=".54" stop-color="#31598f" stop-opacity=".2"/>
      <stop offset="1" stop-color="#31598f" stop-opacity="0"/>
    </linearGradient>
    <linearGradient id="linear-gradient-11" x1="22.87" y1="305.15" x2="22.87" y2="248.66" gradientUnits="userSpaceOnUse">
      <stop offset="0" stop-color="#4e5e6e"/>
      <stop offset="1" stop-color="#2c353e"/>
    </linearGradient>
    <linearGradient id="linear-gradient-12" x1="22.87" y1="315.08" x2="22.87" y2="302.77" gradientUnits="userSpaceOnUse">
      <stop offset="0" stop-color="#4e5e6e"/>
      <stop offset="1" stop-color="#040405"/>
    </linearGradient>
    <linearGradient id="linear-gradient-13" x1="49.74" y1="253.83" x2="-13.97" y2="310.46" xlink:href="#linear-gradient-11"/>
    <linearGradient id="linear-gradient-14" x1="101.8" x2="101.8" xlink:href="#linear-gradient-11"/>
    <linearGradient id="linear-gradient-15" x1="101.8" x2="101.8" xlink:href="#linear-gradient-12"/>
    <linearGradient id="linear-gradient-16" x1="128.85" y1="249.4" x2="68.67" y2="312.4" xlink:href="#linear-gradient-11"/>
    <linearGradient id="linear-gradient-17" x1="180.73" x2="180.73" xlink:href="#linear-gradient-11"/>
    <linearGradient id="linear-gradient-18" x1="180.73" x2="180.73" xlink:href="#linear-gradient-12"/>
    <linearGradient id="linear-gradient-19" x1="212.55" y1="253.63" x2="136.8" y2="310.97" xlink:href="#linear-gradient-11"/>
    <linearGradient id="linear-gradient-20" x1="259.66" x2="259.66" xlink:href="#linear-gradient-11"/>
    <linearGradient id="linear-gradient-21" x1="259.66" x2="259.66" xlink:href="#linear-gradient-12"/>
    <linearGradient id="linear-gradient-22" x1="281.56" y1="247.53" x2="234.83" y2="311.95" xlink:href="#linear-gradient-11"/>
    <linearGradient id="linear-gradient-23" x1="3098.4" y1="305.15" x2="3098.4" y2="248.66" gradientTransform="translate(3825.28) rotate(-180) scale(1 -1)" xlink:href="#linear-gradient-11"/>
    <linearGradient id="linear-gradient-24" x1="3098.4" y1="315.08" x2="3098.4" y2="302.77" gradientTransform="translate(3825.28) rotate(-180) scale(1 -1)" xlink:href="#linear-gradient-12"/>
    <linearGradient id="linear-gradient-25" x1="3125.27" y1="253.83" x2="3061.56" y2="310.46" gradientTransform="translate(3825.28) rotate(-180) scale(1 -1)" xlink:href="#linear-gradient-11"/>
    <linearGradient id="linear-gradient-26" x1="375.11" y1="244.27" x2="375.11" y2="187.78" xlink:href="#linear-gradient-11"/>
    <linearGradient id="linear-gradient-27" x1="375.11" y1="254.2" x2="375.11" y2="241.89" xlink:href="#linear-gradient-12"/>
    <linearGradient id="linear-gradient-28" x1="375.11" y1="187.83" x2="375.11" y2="245.17" xlink:href="#linear-gradient-11"/>
    <linearGradient id="linear-gradient-29" x1="3335.19" y1="305.15" x2="3335.19" y2="248.66" gradientTransform="translate(3825.28) rotate(-180) scale(1 -1)" xlink:href="#linear-gradient-11"/>
    <linearGradient id="linear-gradient-30" x1="3335.19" y1="315.08" x2="3335.19" y2="302.77" gradientTransform="translate(3825.28) rotate(-180) scale(1 -1)" xlink:href="#linear-gradient-12"/>
    <linearGradient id="linear-gradient-31" x1="473.24" y1="253.17" x2="507.92" y2="253.17" gradientUnits="userSpaceOnUse">
      <stop offset="0" stop-color="#fff"/>
      <stop offset="1" stop-color="#fff0d5"/>
    </linearGradient>
    <linearGradient id="linear-gradient-32" x1="3357.09" y1="247.53" x2="3310.36" y2="311.95" gradientTransform="translate(3825.28) rotate(-180) scale(1 -1)" xlink:href="#linear-gradient-11"/>
    <linearGradient id="linear-gradient-33" x1="490.09" y1="207.49" x2="490.09" y2="158.37" gradientUnits="userSpaceOnUse">
      <stop offset="0" stop-color="#efa07c"/>
      <stop offset="1" stop-color="#ffe274"/>
    </linearGradient>
    <filter id="drop-shadow-1" filterUnits="userSpaceOnUse">
      <feOffset dx="0" dy="0"/>
      <feGaussianBlur result="blur" stdDeviation="30"/>
      <feFlood flood-color="#ffca76" flood-opacity=".78"/>
      <feComposite in2="blur" operator="in"/>
      <feComposite in="SourceGraphic"/>
    </filter>
    <linearGradient id="linear-gradient-34" x1="3177.33" y1="305.15" x2="3177.33" y2="248.66" gradientTransform="translate(3825.28) rotate(-180) scale(1 -1)" xlink:href="#linear-gradient-11"/>
    <linearGradient id="linear-gradient-35" x1="3177.33" y1="315.08" x2="3177.33" y2="302.77" gradientTransform="translate(3825.28) rotate(-180) scale(1 -1)" xlink:href="#linear-gradient-12"/>
    <linearGradient id="linear-gradient-36" x1="631.1" x2="665.79" xlink:href="#linear-gradient-31"/>
    <linearGradient id="linear-gradient-37" x1="3199.22" y1="247.53" x2="3152.5" y2="311.95" gradientTransform="translate(3825.28) rotate(-180) scale(1 -1)" xlink:href="#linear-gradient-11"/>
    <linearGradient id="linear-gradient-38" x1="647.95" x2="647.95" xlink:href="#linear-gradient-33"/>
    <filter id="drop-shadow-2" filterUnits="userSpaceOnUse">
      <feOffset dx="0" dy="0"/>
      <feGaussianBlur result="blur-2" stdDeviation="30"/>
      <feFlood flood-color="#ffca76" flood-opacity=".78"/>
      <feComposite in2="blur-2" operator="in"/>
      <feComposite in="SourceGraphic"/>
    </filter>
    <linearGradient id="linear-gradient-39" x1="3259.3" y1="305.15" x2="3259.3" y2="248.66" gradientTransform="translate(3825.28) rotate(-180) scale(1 -1)" xlink:href="#linear-gradient-11"/>
    <linearGradient id="linear-gradient-40" x1="3259.3" y1="315.08" x2="3259.3" y2="302.77" gradientTransform="translate(3825.28) rotate(-180) scale(1 -1)" xlink:href="#linear-gradient-12"/>
    <linearGradient id="linear-gradient-41" x1="549.13" x2="583.82" xlink:href="#linear-gradient-31"/>
    <linearGradient id="linear-gradient-42" x1="3281.19" y1="247.53" x2="3234.47" y2="311.95" gradientTransform="translate(3825.28) rotate(-180) scale(1 -1)" xlink:href="#linear-gradient-11"/>
    <linearGradient id="New_Gradient_Swatch_1" data-name="New Gradient Swatch 1" x1="140.7" y1="107.31" x2="247.83" y2="107.31" gradientTransform="translate(-98.07 461.18) rotate(-13.61)" gradientUnits="userSpaceOnUse">
      <stop offset="0" stop-color="#03f0fc" stop-opacity=".4"/>
      <stop offset="1" stop-color="#31598f"/>
    </linearGradient>
    <linearGradient id="New_Gradient_Swatch_1-2" data-name="New Gradient Swatch 1" x1="2626.98" y1="2100.02" x2="2681.92" y2="2100.02" gradientTransform="translate(3321.13 -757.13) rotate(121.39)" xlink:href="#New_Gradient_Swatch_1"/>
    <linearGradient id="New_Gradient_Swatch_1-3" data-name="New Gradient Swatch 1" x1="1785.64" y1="2038.03" x2="1835.46" y2="2038.03" gradientTransform="translate(2724.47 -1074.23) rotate(98.39)" xlink:href="#New_Gradient_Swatch_1"/>
    <linearGradient id="New_Gradient_Swatch_1-4" data-name="New Gradient Swatch 1" x1="-.89" y1="933.31" x2="48.93" y2="933.31" gradientTransform="translate(574.29 -439.25) rotate(20.92)" xlink:href="#New_Gradient_Swatch_1"/>
    <linearGradient id="New_Gradient_Swatch_1-5" data-name="New Gradient Swatch 1" x1="18.52" y1="431.25" x2="135.36" y2="431.25" gradientTransform="matrix(1, 0, 0, 1, 0, 0)" xlink:href="#New_Gradient_Swatch_1"/>
    <linearGradient id="New_Gradient_Swatch_1-6" data-name="New Gradient Swatch 1" x1="4067.3" y1="454.9" x2="4184.15" y2="454.9" gradientTransform="translate(4773.67) rotate(-180) scale(1 -1)" xlink:href="#New_Gradient_Swatch_1"/>
    <linearGradient id="New_Gradient_Swatch_1-7" data-name="New Gradient Swatch 1" x1="3493.23" y1="-830.13" x2="3610.07" y2="-830.13" gradientTransform="translate(3345.63 -1714.04) rotate(129.29) scale(1 -1)" xlink:href="#New_Gradient_Swatch_1"/>
    <linearGradient id="linear-gradient-43" x1="381.19" y1="-1.11" x2="381.19" y2="173.56" gradientUnits="userSpaceOnUse">
      <stop offset=".5" stop-color="#31598f" stop-opacity="0"/>
      <stop offset="1" stop-color="#03f0fc" stop-opacity=".6"/>
    </linearGradient>
    <linearGradient id="linear-gradient-44" x1="383.5" y1="152.91" x2="383.5" y2="25.8" gradientUnits="userSpaceOnUse">
      <stop offset="0" stop-color="#03f0fc" stop-opacity=".9"/>
      <stop offset=".63" stop-color="#31598f" stop-opacity=".65"/>
      <stop offset="1" stop-color="#31598f" stop-opacity=".5"/>
    </linearGradient>
  </defs>
  <g id="Layer_1-2" data-name="Layer 1">
    <g>
      <g>
        <polygon class="cls-42" points="322.87 663.9 27.91 305.88 18.52 313.62 310.7 668.27 310.7 956.7 322.87 956.7 322.87 663.95 322.81 663.95 322.87 663.9"/>
        <polygon class="cls-1" points="731.7 313.62 722.31 305.88 427.35 663.9 427.41 663.95 427.35 663.95 427.35 956.7 439.52 956.7 439.52 668.27 731.7 313.62"/>
        <rect class="cls-40" x="369.02" y="248.66" width="12.17" height="707.89"/>
        <polygon class="cls-49" points="337.45 586.33 103.51 302.37 94.12 310.11 325.28 590.69 325.28 956.54 337.45 956.54 337.45 586.35 337.42 586.35 337.45 586.33"/>
        <polygon class="cls-30" points="352.03 505.72 183.3 300.92 173.91 308.65 339.86 510.08 339.86 956.54 352.03 956.54 352.03 505.72 352.03 505.72 352.03 505.72"/>
        <polygon class="cls-11" points="366.61 425.72 263.62 300.71 254.23 308.45 354.44 430.09 354.44 956.54 366.61 956.54 366.61 425.72 366.61 425.72 366.61 425.72"/>
        <polygon class="cls-32" points="656.1 310.11 646.71 302.37 412.77 586.33 412.8 586.35 412.77 586.35 412.77 956.54 424.94 956.54 424.94 590.69 656.1 310.11"/>
        <polygon class="cls-50" points="576.31 308.65 566.92 300.92 398.19 505.72 398.19 505.72 398.19 505.72 398.19 956.54 410.36 956.54 410.36 510.08 576.31 308.65"/>
        <polygon class="cls-37" points="495.99 308.45 486.6 300.71 383.61 425.72 383.61 425.72 383.61 425.72 383.61 956.54 395.78 956.54 395.78 430.09 495.99 308.45"/>
      </g>
      <circle class="cls-19" cx="375.11" cy="754.59" r="190.87"/>
      <g>
        <path class="cls-16" d="M45.73,305.15h0c-15.17-2.17-30.57-2.17-45.73,0h0s0-54.86,0-54.86H0c15.17-2.17,30.57-2.17,45.73,0h0v54.86Z"/>
        <path class="cls-51" d="M11.26,303.98c2.49,.24,6.38,.5,11.14,.29,9.97-.44,14.23-2.53,15.24-.88,1.29,2.12-3.47,9.17-10.26,11.14-5.85,1.7-10.95-1.03-12.61-2.05-4.39-2.71-7.64-7.65-6.74-8.8,.46-.58,1.97-.17,3.22,.29Z"/>
        <path class="cls-52" d="M45.73,305.15l-2.8,.51c-13.27,2.4-26.86,2.4-40.13,0l-2.8-.51v-54.86l2.8,.51c13.27,2.4,26.86,2.4,40.13,0l2.8-.51v54.86Z"/>
      </g>
      <g>
        <path class="cls-8" d="M124.67,305.15h0c-15.17-2.17-30.57-2.17-45.73,0h0s0-54.86,0-54.86h0c15.17-2.17,30.57-2.17,45.73,0h0v54.86Z"/>
        <path class="cls-4" d="M90.19,303.98c2.49,.24,6.38,.5,11.14,.29,9.97-.44,14.23-2.53,15.24-.88,1.29,2.12-3.47,9.17-10.26,11.14-5.85,1.7-10.95-1.03-12.61-2.05-4.39-2.71-7.64-7.65-6.74-8.8,.46-.58,1.97-.17,3.22,.29Z"/>
        <path class="cls-22" d="M124.67,305.15l-2.8,.51c-13.27,2.4-26.86,2.4-40.13,0l-2.8-.51v-54.86l2.8,.51c13.27,2.4,26.86,2.4,40.13,0l2.8-.51v54.86Z"/>
      </g>
      <g>
        <path class="cls-2" d="M203.6,305.15h0c-15.17-2.17-30.57-2.17-45.73,0h0s0-54.86,0-54.86h0c15.17-2.17,30.57-2.17,45.73,0h0v54.86Z"/>
        <path class="cls-5" d="M169.12,303.98c2.49,.24,6.38,.5,11.14,.29,9.97-.44,14.23-2.53,15.24-.88,1.29,2.12-3.47,9.17-10.26,11.14-5.85,1.7-10.95-1.03-12.61-2.05-4.39-2.71-7.64-7.65-6.74-8.8,.46-.58,1.97-.17,3.22,.29Z"/>
        <path class="cls-48" d="M203.6,305.15l-2.8,.51c-13.27,2.4-26.86,2.4-40.13,0l-2.8-.51v-54.86l2.8,.51c13.27,2.4,26.86,2.4,40.13,0l2.8-.51v54.86Z"/>
      </g>
      <g>
        <path class="cls-10" d="M282.53,305.15h0c-15.17-2.17-30.57-2.17-45.73,0h0s0-54.86,0-54.86h0c15.17-2.17,30.57-2.17,45.73,0h0v54.86Z"/>
        <path class="cls-27" d="M248.05,303.98c2.49,.24,6.38,.5,11.14,.29,9.97-.44,14.23-2.53,15.24-.88,1.29,2.12-3.47,9.17-10.26,11.14-5.85,1.7-10.95-1.03-12.61-2.05-4.39-2.71-7.64-7.65-6.74-8.8,.46-.58,1.97-.17,3.22,.29Z"/>
        <path class="cls-38" d="M282.53,305.15l-2.8,.51c-13.27,2.4-26.86,2.4-40.13,0l-2.8-.51v-54.86l2.8,.51c13.27,2.4,26.86,2.4,40.13,0l2.8-.51v54.86Z"/>
      </g>
      <g>
        <path class="cls-47" d="M704.01,305.15h0c15.17-2.17,30.57-2.17,45.73,0h0s0-54.86,0-54.86h0c-15.17-2.17-30.57-2.17-45.73,0h0v54.86Z"/>
        <path class="cls-36" d="M738.49,303.98c-2.49,.24-6.38,.5-11.14,.29-9.97-.44-14.23-2.53-15.24-.88-1.29,2.12,3.47,9.17,10.26,11.14,5.85,1.7,10.95-1.03,12.61-2.05,4.39-2.71,7.64-7.65,6.74-8.8-.46-.58-1.97-.17-3.22,.29Z"/>
        <path class="cls-29" d="M704.01,305.15l2.8,.51c13.27,2.4,26.86,2.4,40.13,0l2.8-.51v-54.86s-2.8,.51-2.8,.51c-13.27,2.4-26.86,2.4-40.13,0l-2.8-.51v54.86Z"/>
      </g>
      <g>
        <path class="cls-53" d="M397.98,244.27h0c-15.17-2.17-30.57-2.17-45.73,0h0s0-54.86,0-54.86h0c15.17-2.17,30.57-2.17,45.73,0h0v54.86Z"/>
        <path class="cls-43" d="M363.5,243.1c2.49,.24,6.38,.5,11.14,.29,9.97-.44,14.23-2.53,15.24-.88,1.29,2.12-3.47,9.17-10.26,11.14-5.85,1.7-10.95-1.03-12.61-2.05-4.39-2.71-7.64-7.65-6.74-8.8,.46-.58,1.97-.17,3.22,.29Z"/>
        <path class="cls-7" d="M397.98,244.27l-2.8,.51c-13.27,2.4-26.86,2.4-40.13,0l-2.8-.51v-54.86l2.8,.51c13.27,2.4,26.86,2.4,40.13,0l2.8-.51v54.86Z"/>
      </g>
      <g>
        <path class="cls-34" d="M490.01,220.83c1.46-2.59,1.74-4.7,1.72-6.13-.04-4.02-2.38-6.01-2.3-10.53,.03-1.82,.44-3.29,.77-4.21"/>
        <path class="cls-44" d="M467.22,305.15h0c15.17-2.17,30.57-2.17,45.73,0h0s0-54.86,0-54.86h0c-15.17-2.17-30.57-2.17-45.73,0h0v54.86Z"/>
        <path class="cls-45" d="M501.7,303.98c-2.49,.24-6.38,.5-11.14,.29-9.97-.44-14.23-2.53-15.24-.88-1.29,2.12,3.47,9.17,10.26,11.14,5.85,1.7,10.95-1.03,12.61-2.05,4.39-2.71,7.64-7.65,6.74-8.8-.46-.58-1.97-.17-3.22,.29Z"/>
        <polygon class="cls-23" points="507.92 288.35 473.24 288.35 473.24 218 507.92 218 507.92 223.06 507.92 288.35"/>
        <path class="cls-28" d="M507.92,285.03h-34.69v-39.18l6.42,.61c7.27,.7,14.58,.7,21.85,0l6.42-.61v39.18Z"/>
        <path class="cls-15" d="M467.22,305.15l2.8,.51c13.27,2.4,26.86,2.4,40.13,0l2.8-.51v-54.86s-2.8,.51-2.8,.51c-13.27,2.4-26.86,2.4-40.13,0l-2.8-.51v54.86Z"/>
        <path class="cls-18" d="M496.87,206.39c-8.62,3.26-16.33-1.69-17.04-2.17-7-4.66-10.05-13.52-8.21-20.91,.88-3.53,2.7-6.07,4.03-7.59-.27,1.27-.46,2.85-.31,4.65,.44,5.45,3.62,9.15,4.96,10.53-.98-1.78-2.71-5.51-2.79-10.53-.08-5.32,1.74-9.28,2.71-11.08,.16,.92,.39,1.91,.7,2.94,.96,3.21,2.41,5.74,3.72,7.59,.71-1.66,1.43-3.99,1.47-6.82,.11-8.03-5.4-13.46-6.66-14.64,2.41,.25,6.36,1.04,9.99,3.87,6.13,4.77,8.79,13.3,7.2,22.07,1.13-.55,1.9-1.22,2.4-1.78,3.44-3.85,1.42-9.94,1.24-10.46,.91,.92,2.3,2.58,3.1,5.03,.27,.84,1.67,5.39-.85,9.99-.46,.84-1.97,3.52-5.19,5.03-1.24,.58-2.38,.82-3.18,.93,1.47,.44,3.46,.74,5.58,.15,4.51-1.24,7.88-5.97,8.52-11.93,.51,1.79,1.07,4.64,.7,8.06-.11,.97-1.65,13.09-12.08,17.04Z"/>
      </g>
      <g>
        <path class="cls-34" d="M647.87,220.83c1.46-2.59,1.74-4.7,1.72-6.13-.04-4.02-2.38-6.01-2.3-10.53,.03-1.82,.44-3.29,.77-4.21"/>
        <path class="cls-31" d="M625.08,305.15h0c15.17-2.17,30.57-2.17,45.73,0h0s0-54.86,0-54.86h0c-15.17-2.17-30.57-2.17-45.73,0h0v54.86Z"/>
        <path class="cls-14" d="M659.56,303.98c-2.49,.24-6.38,.5-11.14,.29-9.97-.44-14.23-2.53-15.24-.88-1.29,2.12,3.47,9.17,10.26,11.14,5.85,1.7,10.95-1.03,12.61-2.05,4.39-2.71,7.64-7.65,6.74-8.8-.46-.58-1.97-.17-3.22,.29Z"/>
        <polygon class="cls-9" points="665.79 288.35 631.1 288.35 631.1 218 665.79 218 665.79 223.06 665.79 288.35"/>
        <path class="cls-28" d="M665.79,285.03h-34.69v-39.18l6.42,.61c7.27,.7,14.58,.7,21.85,0l6.42-.61v39.18Z"/>
        <path class="cls-20" d="M625.08,305.15l2.8,.51c13.27,2.4,26.86,2.4,40.13,0l2.8-.51v-54.86s-2.8,.51-2.8,.51c-13.27,2.4-26.86,2.4-40.13,0l-2.8-.51v54.86Z"/>
        <path class="cls-24" d="M654.73,206.39c-8.62,3.26-16.33-1.69-17.04-2.17-7-4.66-10.05-13.52-8.21-20.91,.88-3.53,2.7-6.07,4.03-7.59-.27,1.27-.46,2.85-.31,4.65,.44,5.45,3.62,9.15,4.96,10.53-.98-1.78-2.71-5.51-2.79-10.53-.08-5.32,1.74-9.28,2.71-11.08,.16,.92,.39,1.91,.7,2.94,.96,3.21,2.41,5.74,3.72,7.59,.71-1.66,1.43-3.99,1.47-6.82,.11-8.03-5.4-13.46-6.66-14.64,2.41,.25,6.36,1.04,9.99,3.87,6.13,4.77,8.79,13.3,7.2,22.07,1.13-.55,1.9-1.22,2.4-1.78,3.44-3.85,1.42-9.94,1.24-10.46,.91,.92,2.3,2.58,3.1,5.03,.27,.84,1.67,5.39-.85,9.99-.46,.84-1.97,3.52-5.19,5.03-1.24,.58-2.38,.82-3.18,.93,1.47,.44,3.46,.74,5.58,.15,4.51-1.24,7.88-5.97,8.52-11.93,.51,1.79,1.07,4.64,.7,8.06-.11,.97-1.65,13.09-12.08,17.04Z"/>
      </g>
      <g>
        <path class="cls-34" d="M565.9,220.83c1.46-2.59,1.74-4.7,1.72-6.13-.04-4.02-2.38-6.01-2.3-10.53,.03-1.82,.44-3.29,.77-4.21"/>
        <path class="cls-17" d="M543.11,305.15h0c15.17-2.17,30.57-2.17,45.73,0h0s0-54.86,0-54.86h0c-15.17-2.17-30.57-2.17-45.73,0h0v54.86Z"/>
        <path class="cls-6" d="M577.59,303.98c-2.49,.24-6.38,.5-11.14,.29-9.97-.44-14.23-2.53-15.24-.88-1.29,2.12,3.47,9.17,10.26,11.14,5.85,1.7,10.95-1.03,12.61-2.05,4.39-2.71,7.64-7.65,6.74-8.8-.46-.58-1.97-.17-3.22,.29Z"/>
        <polygon class="cls-26" points="583.82 288.35 549.13 288.35 549.13 218 583.82 218 583.82 223.06 583.82 288.35"/>
        <path class="cls-28" d="M583.82,285.03h-34.69v-39.18l6.42,.61c7.27,.7,14.58,.7,21.85,0l6.42-.61v39.18Z"/>
        <path class="cls-39" d="M543.11,305.15l2.8,.51c13.27,2.4,26.86,2.4,40.13,0l2.8-.51v-54.86s-2.8,.51-2.8,.51c-13.27,2.4-26.86,2.4-40.13,0l-2.8-.51v54.86Z"/>
      </g>
      <path class="cls-33" d="M164.62,492.97c-6.52-1.39-17.12-2.87-29.87-1.02-7.47,1.08-31.7,4.98-49.53,26.08-10.89,12.89-14.77,26.73-16.28,35.02,6.46-3.12,16.26-7.2,28.69-9.86,20.53-4.4,29.07-.81,39.53-5.2,9.59-4.03,20.9-14.81,27.46-45.01Z"/>
      <path class="cls-35" d="M138.03,442.58c2.87-1.86,7.25-5.17,11.2-10.46,2.31-3.1,9.69-13.3,8.5-27.42-.72-8.62-4.34-15.05-6.79-18.6-1.21,3.47-3.29,8.51-6.83,13.98-5.85,9.04-10.25,10.84-12.45,16.22-2.02,4.94-2.21,12.95,6.36,26.28Z"/>
      <path class="cls-12" d="M447.25,445.34c1.73-2.57,4.22-6.88,5.64-12.7,.83-3.41,3.38-14.53-2.62-25.89-3.66-6.94-8.95-11.02-12.26-13.12,.22,3.33,.27,8.26-.75,14.09-1.68,9.62-4.71,12.68-4.64,17.95,.07,4.84,2.74,11.59,14.62,19.68Z"/>
      <path class="cls-46" d="M289.21,443.68c-2.13-2.25-5.8-5.61-11.17-8.26-3.15-1.55-13.46-6.45-25.85-3.07-7.57,2.07-12.7,6.35-15.47,9.12,3.3,.51,8.13,1.53,13.59,3.78,9.02,3.73,11.35,7.35,16.51,8.43,4.74,.99,11.91-.17,22.38-10Z"/>
      <path class="cls-13" d="M132.88,450.28c-3.32-2.8-8.12-1.59-11.33-1.42-8.34,.46-13.88-5.6-19.47-9.2-6.38-4.12-16.99-7.72-35.52-5.38-3.44-12.38-8.61-17.09-13.07-18.96-5.36-2.25-9.74-.41-20.27-2.67-6.37-1.37-11.4-3.46-14.71-5.06,.78,4.25,2.76,11.35,8.35,17.96,9.14,10.82,21.57,12.82,25.4,13.37,6.53,.95,11.97,.19,15.32-.52-.01-.06-.03-.12-.04-.18,15.62-2.01,25.45,1.26,31.71,4.97,5.87,3.48,10.33,8.36,19.47,10.62,6.66,1.64,12.59,1.1,16.64,.35-.35-1.11-1.04-2.68-2.48-3.89Z"/>
      <path class="cls-25" d="M592.01,473.93c3.32-2.8,8.12-1.59,11.33-1.42,8.34,.46,13.88-5.6,19.47-9.2,6.38-4.12,16.99-7.72,35.52-5.38,3.44-12.38,8.61-17.09,13.07-18.96,5.36-2.25,9.74-.41,20.27-2.67,6.37-1.37,11.4-3.46,14.71-5.06-.78,4.25-2.76,11.35-8.35,17.96-9.14,10.82-21.57,12.82-25.4,13.37-6.53,.95-11.97,.19-15.32-.52,.01-.06,.03-.12,.04-.18-15.62-2.01-25.45,1.26-31.71,4.97-5.87,3.48-10.33,8.36-19.47,10.62-6.66,1.64-12.59,1.1-16.64,.35,.35-1.11,1.04-2.68,2.48-3.89Z"/>
      <path class="cls-21" d="M433.45,564.52c-.07-4.34,3.91-7.29,6.08-9.66,5.63-6.16,4.46-14.29,5.2-20.89,.85-7.55,4.78-18.03,18.33-30.9-7.4-10.5-7.77-17.49-6.4-22.12,1.65-5.58,5.85-7.8,10.77-17.38,2.98-5.8,4.54-11.01,5.4-14.59,2.8,3.3,7.03,9.33,8.61,17.84,2.58,13.93-3.74,24.81-5.73,28.13-3.4,5.66-7.44,9.39-10.1,11.52-.04-.05-.07-.09-.11-.14-11.45,10.82-15.14,20.5-16.23,27.69-1.02,6.75-.07,13.29-4.11,21.79-2.94,6.19-7.12,10.44-10.26,13.1-.63-.98-1.41-2.5-1.44-4.38Z"/>
      <g>
        <circle class="cls-3" cx="381.19" cy="88.07" r="88.07"/>
        <path class="cls-41" d="M401.06,150.05c-22.29,8.44-42.24-4.38-44.09-5.61-18.11-12.07-26-34.97-21.24-54.11,2.27-9.13,7-15.71,10.42-19.64-.7,3.28-1.18,7.37-.8,12.02,1.15,14.1,9.37,23.67,12.83,27.26-2.53-4.6-7.02-14.26-7.21-27.26-.21-13.77,4.51-24.01,7.01-28.66,.42,2.39,1,4.94,1.8,7.62,2.49,8.3,6.23,14.85,9.62,19.64,1.83-4.29,3.71-10.33,3.81-17.64,.29-20.79-13.98-34.83-17.24-37.88,6.23,.64,16.44,2.7,25.85,10.02,15.85,12.33,22.74,34.4,18.64,57.12,2.94-1.41,4.91-3.15,6.21-4.61,8.91-9.96,3.67-25.71,3.21-27.06,2.35,2.37,5.95,6.68,8.02,13.03,.7,2.16,4.33,13.96-2.2,25.85-1.19,2.16-5.09,9.11-13.43,13.03-3.22,1.51-6.16,2.13-8.22,2.4,3.81,1.14,8.94,1.91,14.43,.4,11.67-3.2,20.4-15.44,22.05-30.86,1.31,4.63,2.78,12,1.8,20.84-.28,2.52-4.27,33.88-31.26,44.09Z"/>
      </g>
    </g>
  </g>
</svg>