<?xml version="1.0" encoding="UTF-8"?>
<svg id="Layer_2" data-name="Layer 2" xmlns="http://www.w3.org/2000/svg" xmlns:xlink="http://www.w3.org/1999/xlink" viewBox="0 0 45.73 66.42">
  <defs>
    <style>
      .cls-1 {
        fill: url(#linear-gradient-2);
      }

      .cls-2 {
        fill: url(#linear-gradient-3);
      }

      .cls-3 {
        fill: url(#linear-gradient);
      }
    </style>
    <linearGradient id="linear-gradient" x1="22.87" y1="56.49" x2="22.87" y2="0" gradientUnits="userSpaceOnUse">
      <stop offset="0" stop-color="#4e5e6e"/>
      <stop offset="1" stop-color="#2c353e"/>
    </linearGradient>
    <linearGradient id="linear-gradient-2" x1="22.87" y1="66.42" x2="22.87" y2="54.11" gradientUnits="userSpaceOnUse">
      <stop offset="0" stop-color="#4e5e6e"/>
      <stop offset="1" stop-color="#040405"/>
    </linearGradient>
    <linearGradient id="linear-gradient-3" x1="49.74" y1="5.17" x2="-13.97" y2="61.81" xlink:href="#linear-gradient"/>
  </defs>
  <g id="Layer_3" data-name="Layer 3">
    <g>
      <path class="cls-3" d="M45.73,56.49h0c-15.17-2.17-30.57-2.17-45.73,0h0S0,1.63,0,1.63H0c15.17-2.17,30.57-2.17,45.73,0h0V56.49Z"/>
      <path class="cls-1" d="M11.26,55.32c2.49,.24,6.38,.5,11.14,.29,9.97-.44,14.23-2.53,15.24-.88,1.29,2.12-3.47,9.17-10.26,11.14-5.85,1.7-10.95-1.03-12.61-2.05-4.39-2.71-7.64-7.65-6.74-8.8,.46-.58,1.97-.17,3.22,.29Z"/>
      <path class="cls-2" d="M45.73,56.49l-2.8,.51c-13.27,2.4-26.86,2.4-40.13,0l-2.8-.51V1.63l2.8,.51c13.27,2.4,26.86,2.4,40.13,0l2.8-.51V56.49Z"/>
    </g>
  </g>
</svg>