<?xml version="1.0" encoding="UTF-8"?>
<svg id="Layer_2" data-name="Layer 2" xmlns="http://www.w3.org/2000/svg" xmlns:xlink="http://www.w3.org/1999/xlink" viewBox="0 0 713.18 708.05">
  <defs>
    <style>
      .cls-1 {
        fill: url(#linear-gradient-2);
      }

      .cls-2 {
        fill: url(#linear-gradient-6);
      }

      .cls-3 {
        fill: url(#New_Gradient_Swatch_1-3);
      }

      .cls-4 {
        fill: url(#New_Gradient_Swatch_1-5);
      }

      .cls-5 {
        fill: url(#linear-gradient-10);
      }

      .cls-6 {
        fill: url(#New_Gradient_Swatch_1-7);
      }

      .cls-7 {
        fill: url(#New_Gradient_Swatch_1-6);
      }

      .cls-8 {
        fill: url(#linear-gradient-5);
      }

      .cls-9 {
        fill: url(#linear-gradient-7);
      }

      .cls-10 {
        fill: url(#New_Gradient_Swatch_1);
      }

      .cls-11 {
        fill: url(#New_Gradient_Swatch_1-2);
      }

      .cls-12 {
        fill: url(#linear-gradient-9);
      }

      .cls-13 {
        fill: url(#linear-gradient-3);
      }

      .cls-14 {
        fill: url(#linear-gradient);
      }

      .cls-15 {
        fill: url(#New_Gradient_Swatch_1-4);
      }

      .cls-16 {
        fill: url(#linear-gradient-4);
      }

      .cls-17 {
        fill: url(#linear-gradient-8);
      }
    </style>
    <linearGradient id="linear-gradient" x1="152.18" y1="708.05" x2="152.18" y2="57.23" gradientUnits="userSpaceOnUse">
      <stop offset="0" stop-color="#31598f" stop-opacity="0"/>
      <stop offset=".44" stop-color="#317cba" stop-opacity=".5"/>
      <stop offset="1" stop-color="#03f0fc"/>
    </linearGradient>
    <linearGradient id="linear-gradient-2" x1="561" x2="561" xlink:href="#linear-gradient"/>
    <linearGradient id="linear-gradient-3" x1="356.59" y1="707.89" x2="356.59" y2="0" xlink:href="#linear-gradient"/>
    <linearGradient id="linear-gradient-4" x1="197.27" y1="707.89" x2="197.27" y2="53.72" xlink:href="#linear-gradient"/>
    <linearGradient id="linear-gradient-5" x1="244.45" y1="707.89" x2="244.45" y2="52.26" xlink:href="#linear-gradient"/>
    <linearGradient id="linear-gradient-6" x1="291.9" y1="707.89" x2="291.9" y2="52.05" xlink:href="#linear-gradient"/>
    <linearGradient id="linear-gradient-7" x1="515.91" y1="707.89" x2="515.91" y2="53.72" xlink:href="#linear-gradient"/>
    <linearGradient id="linear-gradient-8" x1="468.73" y1="707.89" x2="468.73" y2="52.26" xlink:href="#linear-gradient"/>
    <linearGradient id="linear-gradient-9" x1="421.28" y1="707.89" x2="421.28" y2="52.05" xlink:href="#linear-gradient"/>
    <linearGradient id="linear-gradient-10" x1="356.59" y1="687.71" x2="356.59" y2="346.54" gradientUnits="userSpaceOnUse">
      <stop offset="0" stop-color="#1e7d99" stop-opacity=".8"/>
      <stop offset=".12" stop-color="#237195" stop-opacity=".62"/>
      <stop offset=".3" stop-color="#2a6492" stop-opacity=".39"/>
      <stop offset=".45" stop-color="#2f5c8f" stop-opacity=".25"/>
      <stop offset=".54" stop-color="#31598f" stop-opacity=".2"/>
      <stop offset="1" stop-color="#31598f" stop-opacity="0"/>
    </linearGradient>
    <linearGradient id="New_Gradient_Swatch_1" data-name="New Gradient Swatch 1" x1="-210.11" y1="-135.05" x2="-102.99" y2="-135.05" gradientTransform="translate(281.42 365.5) rotate(-13.61)" gradientUnits="userSpaceOnUse">
      <stop offset="0" stop-color="#03f0fc" stop-opacity=".4"/>
      <stop offset="1" stop-color="#31598f"/>
    </linearGradient>
    <linearGradient id="New_Gradient_Swatch_1-2" data-name="New Gradient Swatch 1" x1="3501.21" y1="-424.95" x2="3556.15" y2="-424.95" gradientTransform="translate(1602.39 -3067.1) rotate(121.39)" xlink:href="#New_Gradient_Swatch_1"/>
    <linearGradient id="New_Gradient_Swatch_1-3" data-name="New Gradient Swatch 1" x1="2920.4" y1="7.65" x2="2970.22" y2="7.65" gradientTransform="translate(862.79 -2741.64) rotate(98.39)" xlink:href="#New_Gradient_Swatch_1"/>
    <linearGradient id="New_Gradient_Swatch_1-4" data-name="New Gradient Swatch 1" x1="463.7" y1="524.4" x2="513.51" y2="524.4" gradientTransform="translate(-24.18 -471.82) rotate(20.92)" xlink:href="#New_Gradient_Swatch_1"/>
    <linearGradient id="New_Gradient_Swatch_1-5" data-name="New Gradient Swatch 1" x1="0" y1="182.59" x2="116.84" y2="182.59" gradientTransform="matrix(1, 0, 0, 1, 0, 0)" xlink:href="#New_Gradient_Swatch_1"/>
    <linearGradient id="New_Gradient_Swatch_1-6" data-name="New Gradient Swatch 1" x1="3663.76" y1="206.24" x2="3780.6" y2="206.24" gradientTransform="translate(4351.61) rotate(-180) scale(1 -1)" xlink:href="#New_Gradient_Swatch_1"/>
    <linearGradient id="New_Gradient_Swatch_1-7" data-name="New Gradient Swatch 1" x1="4235.12" y1="-1439.13" x2="4351.96" y2="-1439.13" gradientTransform="translate(4268.24 -2151.25) rotate(129.29) scale(1 -1)" xlink:href="#New_Gradient_Swatch_1"/>
  </defs>
  <g id="Layer_1-2" data-name="Layer 1">
    <g>
      <g>
        <polygon class="cls-14" points="304.35 415.24 9.39 57.23 0 64.96 292.18 419.61 292.18 708.05 304.35 708.05 304.35 415.29 304.29 415.29 304.35 415.24"/>
        <polygon class="cls-1" points="713.18 64.96 703.79 57.23 408.83 415.24 408.89 415.29 408.83 415.29 408.83 708.05 421 708.05 421 419.61 713.18 64.96"/>
        <rect class="cls-13" x="350.51" width="12.17" height="707.89"/>
        <polygon class="cls-16" points="318.93 337.67 84.99 53.72 75.6 61.45 306.76 342.04 306.76 707.89 318.93 707.89 318.93 337.69 318.9 337.69 318.93 337.67"/>
        <polygon class="cls-8" points="333.51 257.06 164.78 52.26 155.39 60 321.34 261.43 321.34 707.89 333.51 707.89 333.51 257.06 333.51 257.06 333.51 257.06"/>
        <polygon class="cls-2" points="348.09 177.06 245.1 52.05 235.71 59.79 335.93 181.43 335.93 707.89 348.09 707.89 348.09 177.07 348.09 177.07 348.09 177.06"/>
        <polygon class="cls-9" points="637.58 61.45 628.19 53.72 394.25 337.67 394.28 337.69 394.25 337.69 394.25 707.89 406.42 707.89 406.42 342.04 637.58 61.45"/>
        <polygon class="cls-17" points="557.79 60 548.4 52.26 379.67 257.06 379.67 257.06 379.67 257.06 379.67 707.89 391.84 707.89 391.84 261.43 557.79 60"/>
        <polygon class="cls-12" points="477.47 59.79 468.08 52.05 365.09 177.06 365.09 177.07 365.09 177.07 365.09 707.89 377.26 707.89 377.26 181.43 477.47 59.79"/>
      </g>
      <circle class="cls-5" cx="356.59" cy="505.94" r="190.87"/>
      <path class="cls-10" d="M146.11,244.31c-6.52-1.39-17.12-2.87-29.87-1.02-7.47,1.08-31.7,4.98-49.53,26.08-10.89,12.89-14.77,26.73-16.28,35.02,6.46-3.12,16.26-7.2,28.69-9.86,20.53-4.4,29.07-.81,39.53-5.2,9.59-4.03,20.9-14.81,27.46-45.01Z"/>
      <path class="cls-11" d="M119.51,193.92c2.87-1.86,7.25-5.17,11.2-10.46,2.31-3.1,9.69-13.3,8.5-27.42-.72-8.62-4.34-15.05-6.79-18.6-1.21,3.47-3.29,8.51-6.83,13.98-5.85,9.04-10.25,10.84-12.45,16.22-2.02,4.94-2.21,12.95,6.36,26.28Z"/>
      <path class="cls-3" d="M428.73,196.69c1.73-2.57,4.22-6.88,5.64-12.7,.83-3.41,3.38-14.53-2.62-25.89-3.66-6.94-8.95-11.02-12.26-13.12,.22,3.33,.27,8.26-.75,14.09-1.68,9.62-4.71,12.68-4.64,17.95,.07,4.84,2.74,11.59,14.62,19.68Z"/>
      <path class="cls-15" d="M270.7,195.02c-2.13-2.25-5.8-5.61-11.17-8.26-3.15-1.55-13.46-6.45-25.85-3.07-7.57,2.07-12.7,6.35-15.47,9.12,3.3,.51,8.13,1.53,13.59,3.78,9.02,3.73,11.35,7.35,16.51,8.43,4.74,.99,11.91-.17,22.38-10Z"/>
      <path class="cls-4" d="M114.36,201.63c-3.32-2.8-8.12-1.59-11.33-1.42-8.34,.46-13.88-5.6-19.47-9.2-6.38-4.12-16.99-7.72-35.52-5.38-3.44-12.38-8.61-17.09-13.07-18.96-5.36-2.25-9.74-.41-20.27-2.67-6.37-1.37-11.4-3.46-14.71-5.06,.78,4.25,2.76,11.35,8.35,17.96,9.14,10.82,21.57,12.82,25.4,13.37,6.53,.95,11.97,.19,15.32-.52-.01-.06-.03-.12-.04-.18,15.62-2.01,25.45,1.26,31.71,4.97,5.87,3.48,10.33,8.36,19.47,10.62,6.66,1.64,12.59,1.1,16.64,.35-.35-1.11-1.04-2.68-2.48-3.89Z"/>
      <path class="cls-7" d="M573.49,225.27c3.32-2.8,8.12-1.59,11.33-1.42,8.34,.46,13.88-5.6,19.47-9.2,6.38-4.12,16.99-7.72,35.52-5.38,3.44-12.38,8.61-17.09,13.07-18.96,5.36-2.25,9.74-.41,20.27-2.67,6.37-1.37,11.4-3.46,14.71-5.06-.78,4.25-2.76,11.35-8.35,17.96-9.14,10.82-21.57,12.82-25.4,13.37-6.53,.95-11.97,.19-15.32-.52,.01-.06,.03-.12,.04-.18-15.62-2.01-25.45,1.26-31.71,4.97-5.87,3.48-10.33,8.36-19.47,10.62-6.66,1.64-12.59,1.1-16.64,.35,.35-1.11,1.04-2.68,2.48-3.89Z"/>
      <path class="cls-6" d="M414.93,315.87c-.07-4.34,3.91-7.29,6.08-9.66,5.63-6.16,4.46-14.29,5.2-20.89,.85-7.55,4.78-18.03,18.33-30.9-7.4-10.5-7.77-17.49-6.4-22.12,1.65-5.58,5.85-7.8,10.77-17.38,2.98-5.8,4.54-11.01,5.4-14.59,2.8,3.3,7.03,9.33,8.61,17.84,2.58,13.93-3.74,24.81-5.73,28.13-3.4,5.66-7.44,9.39-10.1,11.52-.04-.05-.07-.09-.11-.14-11.45,10.82-15.14,20.5-16.23,27.69-1.02,6.75-.07,13.29-4.11,21.79-2.94,6.19-7.12,10.44-10.26,13.1-.63-.98-1.41-2.5-1.44-4.38Z"/>
    </g>
  </g>
</svg>